<svg width="27" height="26" viewBox="0 0 27 26" fill="none" xmlns="http://www.w3.org/2000/svg">
<path d="M11.9402 0.166262C5.8069 0.832928 0.873569 5.76626 0.206903 11.7663C-0.459764 18.0329 3.14024 23.6329 8.6069 25.7663C9.0069 25.8996 9.4069 25.6329 9.4069 25.0996V22.9663C9.4069 22.9663 8.87357 23.0996 8.2069 23.0996C6.34024 23.0996 5.54024 21.4996 5.4069 20.5663C5.27357 20.0329 5.0069 19.6329 4.6069 19.2329C4.2069 19.0996 4.07357 19.0996 4.07357 18.9663C4.07357 18.6996 4.47357 18.6996 4.6069 18.6996C5.4069 18.6996 6.07357 19.6329 6.34024 20.0329C7.0069 21.0996 7.8069 21.3663 8.2069 21.3663C8.74024 21.3663 9.14024 21.2329 9.4069 21.0996C9.54024 20.1663 9.94024 19.2329 10.7402 18.6996C7.67357 18.0329 5.4069 16.2996 5.4069 13.3663C5.4069 11.8996 6.07357 10.4329 7.0069 9.36626C6.87357 9.0996 6.74024 8.43293 6.74024 7.4996C6.74024 6.96626 6.74024 6.16626 7.14024 5.36626C7.14024 5.36626 9.0069 5.36626 10.8736 7.0996C11.5402 6.83293 12.4736 6.6996 13.4069 6.6996C14.3402 6.6996 15.2736 6.83293 16.0736 7.0996C17.8069 5.36626 19.8069 5.36626 19.8069 5.36626C20.0736 6.16626 20.0736 6.96626 20.0736 7.4996C20.0736 8.56626 19.9402 9.0996 19.8069 9.36626C20.7402 10.4329 21.4069 11.7663 21.4069 13.3663C21.4069 16.2996 19.1402 18.0329 16.0736 18.6996C16.8736 19.3663 17.4069 20.5663 17.4069 21.7663V25.2329C17.4069 25.6329 17.8069 26.0329 18.3402 25.8996C23.2736 23.8996 26.7402 19.0996 26.7402 13.4996C26.7402 5.4996 19.9402 -0.767072 11.9402 0.166262Z" fill="#64FFDA"/>
</svg>
