<svg width="25" height="24" viewBox="0 0 25 24" fill="none" xmlns="http://www.w3.org/2000/svg">
<path d="M21.7894 16.3468L18.4027 15.9601C17.5894 15.8668 16.7894 16.1468 16.216 16.7201L13.7627 19.1734C9.98938 17.2534 6.89604 14.1734 4.97604 10.3868L7.44271 7.92009C8.01604 7.34676 8.29604 6.54676 8.20271 5.73343L7.81604 2.37343C7.65604 1.02676 6.52271 0.0134277 5.16271 0.0134277H2.85604C1.34938 0.0134277 0.0960434 1.26676 0.189377 2.77343C0.896043 14.1601 10.0027 23.2534 21.376 23.9601C22.8827 24.0534 24.136 22.8001 24.136 21.2934V18.9868C24.1494 17.6401 23.136 16.5068 21.7894 16.3468Z" fill="#64FFDA"/>
</svg>
