<svg width="25" height="24" viewBox="0 0 25 24" fill="none" xmlns="http://www.w3.org/2000/svg">
<path d="M2.97377 0C1.50043 0 0.307098 1.19333 0.307098 2.66667V21.3333C0.307098 22.8067 1.50043 24 2.97377 24H21.6404C23.1138 24 24.3071 22.8067 24.3071 21.3333V2.66667C24.3071 1.19333 23.1138 0 21.6404 0H2.97377ZM2.97377 2.66667H21.6404V21.3333H2.97377V2.66667ZM6.67949 4.42188C5.53683 4.42188 4.85137 5.10877 4.85137 6.02344C4.85137 6.9381 5.53691 7.6224 6.56491 7.6224C7.70758 7.6224 8.39304 6.9381 8.39304 6.02344C8.39304 5.10877 7.70749 4.42188 6.67949 4.42188ZM4.94252 9.33333V18.6667H8.3071V9.33333H4.94252ZM11.0831 9.33333V18.6667H14.4477V13.5651C14.4477 12.0464 15.5312 11.8281 15.8566 11.8281C16.1819 11.8281 17.0519 12.1544 17.0519 13.5651V18.6667H20.3071V13.5651C20.3071 10.6358 19.0054 9.33333 17.3774 9.33333C15.7494 9.33333 14.8811 9.87542 14.4477 10.6354V9.33333H11.0831Z" fill="#64FFDA"/>
</svg>
