<svg width="27" height="22" viewBox="0 0 27 22" fill="none" xmlns="http://www.w3.org/2000/svg">
<path d="M24.0133 0.333252H2.67999C1.21332 0.333252 0.0266542 1.53325 0.0266542 2.99992L0.0133209 18.9999C0.0133209 20.4666 1.21332 21.6666 2.67999 21.6666H24.0133C25.48 21.6666 26.68 20.4666 26.68 18.9999V2.99992C26.68 1.53325 25.48 0.333252 24.0133 0.333252ZM23.48 5.99992L14.0533 11.8933C13.6267 12.1599 13.0667 12.1599 12.64 11.8933L3.21332 5.99992C2.87999 5.78659 2.67999 5.42659 2.67999 5.03992C2.67999 4.14659 3.65332 3.61325 4.41332 4.07992L13.3467 9.66659L22.28 4.07992C23.04 3.61325 24.0133 4.14659 24.0133 5.03992C24.0133 5.42659 23.8133 5.78659 23.48 5.99992Z" fill="#64FFDA"/>
</svg>
